<svg width="82" height="80" viewBox="0 0 82 80" fill="none" xmlns="http://www.w3.org/2000/svg">
<path d="M49.7392 79.7H32.0392C31.8392 79.7 31.7392 79.7 31.6392 79.6L15.6392 71.9C15.2392 71.7 15.0392 71.2 15.1392 70.8C15.2392 70.3 15.6392 70 16.1392 70H45.9392L65.7392 45.2C65.9392 44.9 66.3392 44.8 66.7392 44.8C67.1392 44.9 67.4392 45.2 67.5392 45.6L69.6392 55C69.7392 55.3 69.6392 55.6 69.4392 55.8L50.5392 79.3C50.3392 79.6 50.0392 79.7 49.7392 79.7ZM32.2392 77.7H49.2392L67.4392 54.9L65.9392 48L47.0392 71.6C46.8392 71.8 46.5392 72 46.2392 72H20.4392L32.2392 77.7Z" fill="#C6BDAC"/>
<path d="M49.7392 79.7C49.4392 79.7 49.1392 79.6 48.9392 79.3C48.6392 78.9 48.6392 78.4 48.9392 78.1L67.4392 54.9L60.3392 23.9C60.2392 23.5 60.4392 23.1 60.7392 22.9C61.0392 22.7 61.4392 22.6 61.8392 22.8L70.6392 27C70.9392 27.1 71.1392 27.4 71.1392 27.7L77.8392 56.9C77.9392 57.2 77.8392 57.5 77.6392 57.7L66.5392 71.6C66.4392 71.7 66.3392 71.8 66.2392 71.9L50.2392 79.6C50.0392 79.7 49.9392 79.7 49.7392 79.7ZM62.8392 25.5L69.5392 54.9C69.6392 55.2 69.5392 55.5 69.3392 55.7L53.2392 75.9L65.0392 70.2L75.6392 56.9L69.1392 28.6L62.8392 25.5Z" fill="#C6BDAC"/>
<path d="M76.8392 58.1C76.3392 58.1 75.9392 57.8 75.8392 57.3L69.2392 28.5L40.5392 14.8C40.2392 14.6 39.9392 14.3 39.9392 13.9C39.9392 13.5 40.1392 13.2 40.5392 13L49.4392 8.7C49.7392 8.6 50.0392 8.6 50.3392 8.7L77.2392 21.7C77.5392 21.8 77.7392 22.1 77.7392 22.4L81.6392 39.7C81.6392 39.8 81.6392 40 81.6392 40.1L77.7392 57.4C77.6392 57.8 77.2392 58.1 76.8392 58.1ZM43.2392 13.9L70.5392 27.1C70.8392 27.2 71.0392 27.5 71.0392 27.8L76.7392 52.8L79.6392 40L75.9392 23.2L49.8392 10.7L43.2392 13.9Z" fill="#C6BDAC"/>
<path d="M15.4392 46.8C15.1392 46.8 14.8392 46.7 14.6392 46.4L8.43923 38.7C8.23923 38.5 8.13923 38.2 8.23923 37.9L14.9392 8.5C15.0392 8.2 15.2392 8 15.4392 7.8L31.4392 0.1C31.5392 3.7998e-07 31.7392 0 31.8392 0H49.5392C50.0392 0 50.4392 0.3 50.5392 0.8C50.6392 1.3 50.4392 1.7 50.0392 1.9L23.6392 14.7L16.4392 46.1C16.3392 46.5 16.0392 46.8 15.6392 46.9C15.6392 46.8 15.5392 46.8 15.4392 46.8ZM10.3392 37.8L14.9392 43.5L21.7392 13.7C21.8392 13.4 22.0392 13.2 22.2392 13L45.3392 2H32.2392L16.8392 9.4L10.3392 37.8Z" fill="#C6BDAC"/>
<path d="M20.5392 24.7C20.3392 24.7 20.1392 24.6 19.9392 24.5C19.6392 24.3 19.5392 23.9 19.5392 23.5L21.7392 13.8C21.8392 13.5 22.0392 13.3 22.2392 13.1L49.2392 0.100024C49.5392 2.44156e-05 49.8392 2.44156e-05 50.1392 0.100024L66.1392 7.80002C66.2392 7.90002 66.4392 8.00002 66.4392 8.10002L77.5392 22C77.8392 22.4 77.8392 22.9 77.5392 23.2C77.2392 23.6 76.7392 23.7 76.3392 23.5L49.8392 10.7L20.9392 24.6C20.8392 24.7 20.6392 24.7 20.5392 24.7ZM23.6392 14.7L21.9392 21.9L49.4392 8.70002C49.7392 8.60002 50.0392 8.60002 50.3392 8.70002L73.3392 19.8L65.1392 9.50002L49.7392 2.10002L23.6392 14.7Z" fill="#C6BDAC"/>
<path d="M46.3392 72H16.0392C15.7392 72 15.4392 71.9 15.2392 71.6L4.13923 57.8C4.03923 57.7 3.93923 57.5 3.93923 57.4L0.0392297 40.1C-0.0607703 39.6 0.13923 39.2 0.53923 39C0.93923 38.8 1.43923 38.9 1.73923 39.3L20.3392 62.6H52.2392C52.6392 62.6 52.9392 62.8 53.1392 63.2C53.3392 63.5 53.2392 64 53.0392 64.3L47.0392 71.8C46.8392 71.9 46.6392 72 46.3392 72ZM16.5392 70H45.8392L50.2392 64.5H19.8392C19.5392 64.5 19.2392 64.4 19.0392 64.1L2.93923 43.9L5.83923 56.7L16.5392 70Z" fill="#C6BDAC"/>
<path d="M29.6392 64.5H19.9392C19.6392 64.5 19.3392 64.4 19.1392 64.1L0.239231 40.5C0.0392307 40.3 -0.0607696 40 0.0392304 39.7L3.93923 22.3C3.93923 22.2 4.03923 22 4.13923 21.9L15.2392 7.99998C15.5392 7.59998 16.0392 7.49998 16.4392 7.69998C16.8392 7.89998 17.0392 8.39998 16.9392 8.79998L10.3392 37.7L30.3392 62.8C30.5392 63.1 30.6392 63.5 30.4392 63.9C30.3392 64.3 29.9392 64.5 29.6392 64.5ZM20.3392 62.5H27.5392L8.53923 38.7C8.33923 38.5 8.23923 38.2 8.33923 37.9L14.0392 12.8L5.83923 23L2.03923 39.6L20.3392 62.5Z" fill="#C6BDAC"/>
</svg>
