<svg width="652" height="653" viewBox="0 0 652 653" fill="none" xmlns="http://www.w3.org/2000/svg">
<path d="M410.935 652.244H409.24C405.852 652.244 403.31 650.55 401.616 648.009C399.922 645.468 399.922 642.08 401.616 639.539L402.463 638.692C403.31 636.998 405.852 635.304 407.546 634.457C410.087 633.61 411.782 634.457 414.323 635.304L415.17 636.151C417.712 637.845 419.406 640.386 419.406 643.774C419.406 647.162 417.712 649.703 415.17 651.397C414.323 651.397 412.629 652.244 410.935 652.244Z" fill="#C6BDAC"/>
<path d="M473.624 419.321C471.93 419.321 471.083 419.321 469.389 418.474C466.847 416.78 465.153 414.239 465.153 410.851V147.434L237.269 16.1488C233.88 14.4548 232.186 10.2198 233.033 6.83183C233.88 3.44383 237.269 0.902832 241.504 0.902832H410.935C412.629 0.902832 413.476 0.902831 415.171 1.74983L562.575 86.4498C565.117 88.1438 566.811 90.6848 566.811 94.0728V362.572C566.811 365.96 565.117 368.501 562.575 370.195L477.86 419.321C476.166 419.321 475.319 419.321 473.624 419.321ZM272.849 16.9958L477.013 134.729C479.554 136.423 481.249 138.964 481.249 142.352V396.452L549.021 357.49V99.1548L409.241 16.9958H272.849Z" fill="#C6BDAC"/>
<path d="M411.782 651.4C410.088 651.4 409.241 651.4 407.547 650.553L174.58 515.88C172.038 514.186 170.344 511.645 170.344 508.257V410.852C170.344 407.464 172.038 404.923 174.58 403.229C177.121 401.535 180.51 401.535 183.051 403.229L410.935 535.36L638.82 404.076C642.208 402.382 646.444 402.382 648.985 405.77C651.527 409.158 652.374 412.546 650.68 415.934L565.964 562.465C565.117 564.159 564.27 565.006 562.576 565.853L416.018 650.553C414.324 651.4 412.63 651.4 411.782 651.4ZM187.287 504.022L411.782 633.613L552.41 552.3L620.182 434.568L416.018 552.3C413.477 553.994 410.088 553.994 407.547 552.3L188.134 425.251V504.022H187.287Z" fill="#C6BDAC"/>
<path d="M411.782 553.995C410.087 553.995 409.24 553.995 407.546 553.148L321.983 504.022C319.442 502.328 317.748 499.787 317.748 496.399C317.748 493.011 319.442 490.47 321.983 488.776L549.868 357.491V94.0735C549.868 89.8385 552.409 87.2975 555.798 85.6035C559.186 84.7565 563.422 86.4505 565.116 89.8385L649.832 236.37C650.679 238.064 651.526 239.758 651.526 240.605V410.852C651.526 412.546 651.526 413.393 650.679 415.087C649.832 416.781 648.985 417.628 647.29 418.475L416.017 552.301C414.323 553.148 412.629 553.995 411.782 553.995ZM343.162 496.399L411.782 536.208L635.43 407.464V243.146L567.658 125.413V361.726C567.658 365.114 565.963 367.655 563.422 369.349L343.162 496.399Z" fill="#C6BDAC"/>
<path d="M9.38193 249.919C6.84047 249.919 3.45185 248.225 1.75755 245.684V244.837C0.0632397 242.296 0.0632397 238.908 1.75755 236.367L86.4729 89.8356C87.32 88.1416 88.1672 87.2946 89.8615 86.4476L236.419 1.74755C238.961 0.0535508 243.196 0.0535508 245.738 1.74755L477.858 135.574C480.399 137.268 482.094 139.809 482.094 143.197V241.449C482.094 244.837 480.399 247.378 477.858 249.072C475.316 250.766 471.928 250.766 469.386 249.072L241.502 116.94L13.6177 248.225C11.9234 249.072 11.0762 249.919 9.38193 249.919ZM241.502 99.1526C243.196 99.1526 244.043 99.1525 245.738 99.9995L465.15 226.203V147.432L241.502 18.6876L100.027 99.9995L31.4079 218.58L237.266 99.9995C238.96 99.1525 239.808 99.1526 241.502 99.1526Z" fill="#C6BDAC"/>
<path d="M94.1 566.697C90.7113 566.697 88.1699 565.003 86.4756 562.462L1.76024 415.084C0.913085 413.39 0.913086 412.543 0.913086 410.849V241.449C0.913086 238.061 2.60739 235.52 5.14885 233.826L238.116 99.1528C240.657 97.4588 244.046 97.4588 246.588 99.1528L331.303 148.279C333.844 149.973 335.539 152.514 335.539 155.902C335.539 159.29 333.844 161.831 331.303 163.525L102.571 294.81V558.227C102.571 562.462 100.03 565.003 96.6414 566.697C95.7943 566.697 94.9471 566.697 94.1 566.697ZM17.009 409.155L84.7813 526.888V290.575C84.7813 287.187 86.4756 284.646 89.017 282.952L308.43 155.902L240.658 116.94L17.009 246.531V409.155Z" fill="#C6BDAC"/>
<path d="M410.088 652.247H241.505C239.81 652.247 238.116 652.247 237.269 651.4L89.8642 566.7C87.3227 565.006 85.6284 562.465 85.6284 559.077V290.578C85.6284 287.19 87.3227 284.649 89.8642 282.955L174.58 233.829C177.121 232.135 180.51 232.135 183.051 233.829C185.593 235.523 187.287 238.064 187.287 241.452V504.022L414.324 635.307C418.56 637.848 419.407 642.93 417.712 647.165L416.865 648.012C416.018 650.553 412.63 652.247 410.088 652.247ZM243.199 635.307H379.591L173.732 516.727C171.191 515.033 169.497 512.492 169.497 509.104V255.851L101.724 294.813V553.148L243.199 635.307Z" fill="#C6BDAC"/>
</svg>
