<svg width="598" height="497" viewBox="0 0 598 497" fill="none" xmlns="http://www.w3.org/2000/svg">
<path fill-rule="evenodd" clip-rule="evenodd" d="M450.737 175.125C461.27 185.206 458.648 198.151 446.77 205.042L434.938 211.909C448.522 228.102 469.17 273.586 440.077 295.255L408.177 313.641C418.095 301.693 418.71 287.97 416.285 274.235C413.71 259.654 406.367 243.89 397.018 233.914L380.348 243.588C365.384 252.277 351.952 243.263 346.639 235.677L68.7955 393.588C84.2931 393.82 116.843 431.45 109.581 463.895C116.193 453.803 116.367 441.101 113.363 420.21C120.578 425.743 114.465 425.998 124.406 429.838C130.6 424.386 130.844 420.442 136.203 417.066C145.263 411.359 148.023 415.431 156.863 412.322C165.539 409.271 160.377 406.835 173.207 403.413C192.417 398.297 187.73 398.854 205.339 385.236C211.8 380.236 223.226 351.596 252.853 379.575C227.565 328.616 228.075 349.531 203.425 354.391C206.917 350.598 207.705 350.099 210.107 344.798L191.964 341.678C212.438 327.166 244.118 351.99 256.402 355.018C263.803 352.013 274.324 346.759 281.679 343.209C293.476 337.513 288.186 336.353 299.113 332.27C317.337 325.461 305.957 334.474 315.609 321.123C320.063 314.963 318.659 315.926 325.863 311.587L343.344 300.973C347.857 297.586 345.351 300.625 349.864 295.591C342.776 281.474 333.357 284.374 318.926 275.117C333.206 273.597 340.282 278.864 352.822 283.863C369.804 290.638 386.926 277.321 398.085 272.379C403.954 289.385 404.778 313.293 388.526 324.962L96.9139 492.919C91.5663 496.004 85.8823 497.419 77.9711 495.819C62.2995 492.64 51.9291 482.073 41.9879 466.517C38.3107 460.752 35.2715 452.922 33.4503 446.368C27.8243 426.068 30.5155 402.044 43.2291 394.748L96.3107 364.251L501.151 131.335C589.079 80.7476 621.037 190.611 579.625 214.658L458.173 284.826C474.424 271.741 471.42 244.609 466.072 230.318L474.506 223.59L496.29 215.215L497.845 201.202L483.449 191.481L498.784 192.862L508.494 188.79L507.972 205.575L513.54 200.982L530.476 203.058L537.424 194.938L549.221 193.059L555.729 184.753C582.71 163.363 555.207 110.165 508.389 140.337L452.036 174.429C451.688 174.58 451.34 174.777 451.004 174.998L450.76 175.148L450.737 175.125ZM21.7459 11.9596C40.3175 111.708 -31.2661 168.455 17.0827 247.022C-10.2701 150.51 64.3179 85.55 21.7459 11.9596ZM86.5899 84.68C105.788 184.312 34.5639 241.512 83.4115 319.765C55.4555 223.428 129.637 158.004 86.5899 84.68ZM50.2703 0C81.7527 142.355 -18.3205 227.314 54.8987 337.815C10.9695 200.529 114.963 103.634 50.2703 0ZM525.024 147.529L520.685 158.769L545.405 156.171L518.516 164.732L513.876 173.965L488.205 175.346L509.549 167.423L525.024 147.529ZM245.452 318.095L265.299 307.98L280.855 304.384L298.452 288.596L288.778 303.224L288.418 308.247L270.299 320.09L274.452 312.515L265.671 311.982L245.475 318.095H245.452ZM128.199 390.931L141.725 367.917L168.961 367.418L144.601 375.097L128.211 390.931H128.199ZM67.6239 477.618C62.5431 474.231 59.5271 472.352 58.0191 467.259C56.5111 462.179 53.8779 454.836 54.8175 455.961C55.7571 457.086 61.4063 467.631 64.4223 470.832C67.4383 474.034 76.0919 479.683 76.0919 479.683L67.6239 477.607V477.618ZM48.5071 450.323C47.1267 449.256 44.6675 444.871 43.3451 443.549C41.8835 442.111 40.0971 443.677 38.9603 441.322C36.5707 436.357 34.8307 424.015 38.4383 419.247C41.5587 415.837 40.6075 428.527 44.5515 434.965C50.1543 444.129 53.5067 454.186 48.5071 450.323ZM76.6139 483.546C87.0191 489.566 98.3407 483.012 99.9531 473.709C100.753 469.104 99.8139 462.086 99.2455 464.348C94.1299 484.799 84.6295 482.073 76.6023 483.546H76.6139ZM97.2735 459.255C97.2735 456.239 98.3987 452.017 94.7331 442.215C91.0675 432.425 80.8943 428.191 79.3863 427.065C77.8783 425.94 80.6159 433.179 84.1887 436.67C87.7615 440.15 89.2347 441.484 90.7427 446.565C92.2507 451.646 97.2735 459.267 97.2735 459.267V459.255ZM74.8739 423.771C72.7047 421.509 67.5311 414.456 64.9907 412.763C51.7551 403.935 44.2035 416.904 45.5027 416.904C46.2567 416.904 51.6159 413.702 56.9867 415.025C62.3575 416.347 67.2411 420.198 70.0715 421.706C72.8903 423.214 74.8739 423.783 74.8739 423.783V423.771ZM71.7999 465.427C63.3319 460.346 57.2535 458.037 57.7291 449.233C58.2047 440.429 55.0495 438.689 53.1587 435.301C51.2795 431.914 57.6247 434.547 60.5479 442.644C63.4711 450.741 62.9027 456.901 67.2759 459.592C71.6491 462.271 71.7883 465.427 71.7883 465.427H71.7999ZM70.2223 470.925C70.2223 470.925 81.6599 473.141 85.0007 469.139C88.3415 465.137 88.6663 460.763 87.5411 457.933C86.4159 455.114 83.0287 451.251 81.7991 448.05C80.5695 444.848 77.9363 436.844 77.9363 436.844C77.9363 436.844 83.5855 446.635 86.4971 450.497C89.4203 454.36 93.1787 468.199 92.1463 470.264C91.1139 472.34 83.1099 478.453 78.8759 477.328C74.6419 476.203 70.2107 470.925 70.2107 470.925H70.2223ZM48.5303 431.392C46.4539 422.054 49.2727 416.857 57.7523 418.447C66.5915 420.105 79.8735 441.009 73.4703 436.473C62.4851 428.689 49.5163 420.349 48.5303 431.392ZM77.6695 465.415C75.2219 461.645 75.8831 460.149 73.0527 458.258C70.2339 456.379 69.1899 455.903 67.7863 451.947C66.3711 447.992 66.3711 446.02 64.6775 443.097C62.9839 440.173 58.4599 433.306 58.4599 433.306C58.4599 433.306 66.2783 435.754 69.7583 439.327C73.2383 442.899 78.8875 450.057 80.0127 453.351C81.1379 456.645 83.7827 461.169 82.1819 463.049C80.5811 464.928 77.6695 465.403 77.6695 465.403V465.415ZM54.4463 471.192C47.4515 465.693 40.8859 450.729 40.6075 447.052C40.4683 445.266 43.4843 453.734 48.4259 455.335C53.3675 456.935 52.6947 459.035 51.8247 462.097C50.9547 465.16 54.4463 471.192 54.4463 471.192ZM100.429 451.971C98.7467 441.635 99.6051 439.524 92.5175 432.436C85.4995 425.418 94.5127 424.861 96.9371 429.049C100.997 436.055 101.101 445.591 100.417 451.971H100.429ZM43.3915 412.241C43.5539 407.751 48.0083 401.476 53.4719 400.977C56.5459 400.699 61.9631 398.205 64.5035 403.297C65.3155 404.921 75.6743 404.643 80.5347 413.401C81.9731 415.987 80.5115 420.233 83.9451 423.33C83.9451 423.33 80.2215 423.435 77.6231 421.671C74.9087 419.827 73.3195 416.08 72.5423 414.398C71.7303 412.647 69.5959 409.851 68.4011 409.074C65.0719 406.939 57.1955 410.443 56.1515 406.116C55.0147 401.406 46.3379 406.893 43.3683 412.241H43.3915ZM358.401 229.239L440.958 181.784L440.993 181.818C445.796 186.389 445.772 190.286 440.135 193.534L372.275 232.673C368.354 234.842 359.608 234.61 358.366 229.32L358.401 229.251V229.239Z" fill="#C6BDAC"/>
</svg>
