<svg width="945" height="922" viewBox="0 0 945 922" fill="none" xmlns="http://www.w3.org/2000/svg">
<path d="M575.317 921.684H370.587C368.274 921.684 367.117 921.684 365.961 920.528L180.894 831.481C176.267 829.169 173.954 823.386 175.111 818.761C176.267 812.978 180.894 809.509 186.677 809.509H531.364L760.384 522.711C762.697 519.241 767.324 518.085 771.951 518.085C776.577 519.241 780.047 522.711 781.204 527.337L805.494 636.042C806.651 639.512 805.494 642.981 803.181 645.294L584.571 917.058C582.257 920.528 578.787 921.684 575.317 921.684ZM372.901 898.555H569.534L780.047 634.886L762.697 555.091L544.087 828.012C541.774 830.325 538.304 832.638 534.834 832.638H236.414L372.901 898.555Z" fill="#C6BDAC"/>
<path d="M575.318 921.685C571.848 921.685 568.378 920.529 566.065 917.06C562.595 912.434 562.595 906.652 566.065 903.182L780.049 634.887L697.925 276.389C696.769 271.764 699.082 267.138 702.552 264.825C706.022 262.512 710.649 261.356 715.275 263.668L817.062 312.239C820.532 313.396 822.845 316.865 822.845 320.334L900.342 658.016C901.499 661.485 900.342 664.955 898.028 667.268L769.638 828.013C768.482 829.17 767.325 830.326 766.169 831.483L581.102 920.529C578.788 921.685 577.632 921.685 575.318 921.685ZM726.842 294.892L804.338 634.887C805.495 638.356 804.339 641.826 802.025 644.139L615.802 877.741L752.288 811.823L874.895 658.016L799.712 330.742L726.842 294.892Z" fill="#C6BDAC"/>
<path d="M888.776 671.894C882.993 671.894 878.366 668.425 877.209 662.643L800.869 329.587L468.906 171.154C465.436 168.841 461.966 165.371 461.966 160.746C461.966 156.12 464.279 152.651 468.906 150.338L571.849 100.61C575.319 99.4541 578.789 99.4541 582.259 100.61L893.403 250.948C896.873 252.105 899.186 255.574 899.186 259.043L944.296 459.108C944.296 460.265 944.296 462.578 944.296 463.734L899.186 663.799C898.029 668.425 893.403 671.894 888.776 671.894ZM500.136 160.746L815.906 313.396C819.376 314.553 821.689 318.022 821.689 321.491L887.619 610.603L921.163 462.578L878.366 268.295L576.476 123.739L500.136 160.746Z" fill="#C6BDAC"/>
<path d="M178.583 541.216C175.113 541.216 171.643 540.06 169.329 536.59L97.6159 447.544C95.3025 445.231 94.1459 441.762 95.3025 438.292L172.799 98.2978C173.956 94.8285 176.269 92.5156 178.583 90.2027L363.649 1.15645C364.806 4.39425e-06 367.119 0 368.276 0H573.006C578.789 0 583.416 3.46934 584.572 9.25156C585.729 15.0338 583.416 19.6596 578.789 21.9724L273.429 169.997L190.149 533.121C188.993 537.747 185.523 541.216 180.896 542.373C180.896 541.216 179.739 541.216 178.583 541.216ZM119.593 437.136L172.799 503.053L251.452 158.433C252.609 154.964 254.922 152.651 257.236 150.338L524.426 23.1289H372.902L194.776 108.706L119.593 437.136Z" fill="#C6BDAC"/>
<path d="M237.569 285.641C235.255 285.641 232.942 284.484 230.629 283.328C227.159 281.015 226.002 276.389 226.002 271.763L251.449 159.588C252.605 156.119 254.919 153.806 257.232 151.493L569.532 1.15542C573.002 -0.00102516 576.472 -0.00102516 579.942 1.15542L765.009 90.2016C766.165 91.3581 768.479 92.5145 768.479 93.671L896.869 254.417C900.339 259.043 900.339 264.825 896.869 268.294C893.399 272.92 887.615 274.076 882.989 271.763L576.472 123.739L242.195 284.484C241.039 285.641 238.725 285.641 237.569 285.641ZM273.425 169.996L253.762 253.26L571.845 100.61C575.315 99.4532 578.785 99.4532 582.255 100.61L848.289 228.975L753.442 109.861L575.315 24.2843L273.425 169.996Z" fill="#C6BDAC"/>
<path d="M535.99 832.639H185.52C182.05 832.639 178.58 831.483 176.266 828.013L47.8763 668.424C46.7196 667.268 45.563 664.955 45.563 663.798L0.452961 463.733C-0.703706 457.951 1.60963 453.325 6.23629 451.012C10.863 448.7 16.6463 449.856 20.1163 454.482L235.256 723.933H604.233C608.86 723.933 612.33 726.246 614.643 730.872C616.956 734.341 615.8 740.124 613.486 743.593L544.086 830.326C541.773 831.483 539.46 832.639 535.99 832.639ZM191.303 809.51H530.206L581.1 745.906H229.473C226.003 745.906 222.533 744.749 220.22 741.28L33.9963 507.678L67.5396 655.703L191.303 809.51Z" fill="#C6BDAC"/>
<path d="M342.827 745.907H230.63C227.16 745.907 223.69 744.751 221.377 741.282L2.7671 468.361C0.453769 466.048 -0.702901 462.579 0.453765 459.109L45.5638 257.888C45.5638 256.732 46.7204 254.419 47.8771 253.262L176.267 92.5164C179.737 87.8906 185.52 86.7342 190.147 89.0471C194.774 91.36 197.087 97.1422 195.93 101.768L119.59 435.98L350.924 726.248C353.237 729.717 354.394 734.343 352.08 738.969C350.924 743.595 346.297 745.907 342.827 745.907ZM235.257 722.779H318.537L98.7704 447.545C96.4571 445.232 95.3004 441.763 96.4571 438.293L162.387 148.026L67.5404 265.983L23.5871 457.953L235.257 722.779Z" fill="#C6BDAC"/>
</svg>
