<svg width="81" height="77" viewBox="0 0 81 77" fill="none" xmlns="http://www.w3.org/2000/svg">
<path d="M52.175 76.325H28.075C27.875 76.325 27.675 76.225 27.475 76.125L7.97499 61.925C7.57499 61.625 7.47499 61.225 7.57499 60.825C7.67499 60.425 8.07499 60.125 8.57499 60.125H40.875L49.175 34.525C49.275 34.225 49.475 34.025 49.775 33.925C50.075 33.825 50.375 33.925 50.675 34.025L62.975 43.025C63.375 43.325 63.475 43.725 63.375 44.125L53.075 75.625C52.975 76.025 52.575 76.325 52.175 76.325ZM28.375 74.325H51.475L61.275 44.125L50.675 36.425L42.575 61.425C42.475 61.825 42.075 62.125 41.575 62.125H11.575L28.375 74.325Z" fill="#C6BDAC"/>
<path d="M52.175 76.325C51.975 76.325 51.775 76.225 51.575 76.125C51.175 75.825 51.075 75.425 51.175 75.025L61.175 44.225L39.475 28.325C39.175 28.125 39.075 27.825 39.075 27.525C39.075 27.225 39.275 26.925 39.475 26.725L51.675 17.825C52.075 17.525 52.475 17.525 52.875 17.825L79.675 37.325C80.075 37.625 80.175 38.025 80.075 38.425L72.575 61.325C72.475 61.525 72.375 61.725 72.175 61.825L52.775 76.125C52.575 76.225 52.375 76.325 52.175 76.325ZM41.775 27.525L62.975 42.925C63.375 43.225 63.475 43.625 63.375 44.025L54.075 72.625L70.875 60.525L77.975 38.625L52.275 19.925L41.775 27.525Z" fill="#C6BDAC"/>
<path d="M79.175 39.225C78.975 39.225 78.775 39.125 78.575 39.025L52.275 19.925L30.675 35.625C30.375 35.825 30.075 35.825 29.775 35.725C29.475 35.625 29.275 35.425 29.175 35.125L24.475 20.725C24.375 20.325 24.475 19.825 24.875 19.625L51.575 0.225C51.975 -0.075 52.375 -0.075 52.775 0.225L72.275 14.425C72.475 14.525 72.575 14.725 72.675 14.925L80.175 37.825C80.275 38.225 80.175 38.725 79.775 38.925C79.575 39.125 79.375 39.225 79.175 39.225ZM52.275 17.725C52.475 17.725 52.675 17.825 52.875 17.925L77.175 35.625L70.875 15.825L52.175 2.325L26.675 20.825L30.675 33.225L51.775 17.925C51.875 17.725 52.075 17.725 52.275 17.725Z" fill="#C6BDAC"/>
<path d="M33.975 47.525H18.675C18.275 47.525 17.875 47.225 17.675 46.825L7.57499 15.525C7.47499 15.125 7.57499 14.625 7.97499 14.425L27.475 0.224994C27.675 0.124994 27.875 0.0249939 28.075 0.0249939H52.175C52.575 0.0249939 52.975 0.324994 53.175 0.724994C53.375 1.12499 53.175 1.62499 52.775 1.82499L26.675 20.825L34.875 46.225C34.975 46.525 34.875 46.825 34.775 47.125C34.675 47.425 34.275 47.525 33.975 47.525ZM19.375 45.525H32.475L24.475 20.725C24.375 20.325 24.475 19.825 24.875 19.625L49.075 2.02499H28.375L9.67499 15.625L19.375 45.525Z" fill="#C6BDAC"/>
<path d="M41.475 62.125H8.475C8.075 62.125 7.675 61.825 7.475 61.425L0.075 38.525C-0.025 38.325 -0.025 38.125 0.075 37.925L7.575 15.025C7.675 14.625 8.075 14.325 8.575 14.325C9.075 14.325 9.375 14.625 9.575 15.025L19.475 45.625H46.275C46.575 45.625 46.875 45.825 47.075 46.025C47.275 46.325 47.275 46.625 47.175 46.925L42.475 61.525C42.375 61.825 41.975 62.125 41.475 62.125ZM9.275 60.125H40.775L44.875 47.525H18.675C18.275 47.525 17.875 47.225 17.675 46.825L8.475 18.425L2.075 38.225L9.275 60.125Z" fill="#C6BDAC"/>
</svg>
